<svg xmlns="http://www.w3.org/2000/svg" xmlns:xlink="http://www.w3.org/1999/xlink" width="500" zoomAndPan="magnify" viewBox="0 0 375 374.999991" height="500" preserveAspectRatio="xMidYMid meet" version="1.0"><defs><g/><clipPath id="93f83f8a35"><path d="M 210 51 L 265 51 L 265 177 L 210 177 Z M 210 51 " clip-rule="nonzero"/></clipPath><clipPath id="f8b579060c"><path d="M 248.570312 50.660156 L 292.953125 66.871094 L 248.183594 189.449219 L 203.800781 173.238281 Z M 248.570312 50.660156 " clip-rule="nonzero"/></clipPath><clipPath id="2c0da3fecd"><path d="M 248.570312 50.660156 L 292.953125 66.871094 L 248.183594 189.449219 L 203.800781 173.238281 Z M 248.570312 50.660156 " clip-rule="nonzero"/></clipPath><clipPath id="c6bce15a44"><path d="M 241 65 L 291 65 L 291 189 L 241 189 Z M 241 65 " clip-rule="nonzero"/></clipPath><clipPath id="0c50c5cbb4"><path d="M 248.570312 50.660156 L 292.953125 66.871094 L 248.183594 189.449219 L 203.800781 173.238281 Z M 248.570312 50.660156 " clip-rule="nonzero"/></clipPath><clipPath id="4ace2a7414"><path d="M 248.570312 50.660156 L 292.953125 66.871094 L 248.183594 189.449219 L 203.800781 173.238281 Z M 248.570312 50.660156 " clip-rule="nonzero"/></clipPath><clipPath id="2863a6770d"><path d="M 178 90 L 335 90 L 335 254 L 178 254 Z M 178 90 " clip-rule="nonzero"/></clipPath><clipPath id="1a33772b36"><path d="M 239.054688 276.328125 L 155.773438 201.816406 L 288.792969 53.136719 L 372.074219 127.648438 Z M 239.054688 276.328125 " clip-rule="nonzero"/></clipPath><clipPath id="2b420fee2c"><path d="M 239.054688 276.328125 L 155.773438 201.816406 L 288.792969 53.136719 L 372.074219 127.648438 Z M 239.054688 276.328125 " clip-rule="nonzero"/></clipPath><clipPath id="f55f575496"><path d="M 167 126 L 305 126 L 305 264 L 167 264 Z M 167 126 " clip-rule="nonzero"/></clipPath><clipPath id="7e8a9a7217"><path d="M 296.535156 120.046875 L 311.109375 256.148438 L 175.007812 270.722656 L 160.433594 134.621094 Z M 296.535156 120.046875 " clip-rule="nonzero"/></clipPath><clipPath id="66b1847cae"><path d="M 303.820312 188.097656 C 299.796875 150.511719 266.066406 123.308594 228.484375 127.332031 C 190.902344 131.355469 163.695312 165.085938 167.71875 202.671875 C 171.746094 240.253906 205.472656 267.457031 243.058594 263.433594 C 280.640625 259.410156 307.847656 225.679688 303.820312 188.097656 Z M 303.820312 188.097656 " clip-rule="nonzero"/></clipPath><clipPath id="ed389a9843"><path d="M 167 126 L 305 126 L 305 264 L 167 264 Z M 167 126 " clip-rule="nonzero"/></clipPath><clipPath id="f7d0c488f8"><path d="M 296.535156 120.046875 L 311.148438 256.515625 L 174.679688 271.128906 L 160.066406 134.660156 Z M 296.535156 120.046875 " clip-rule="nonzero"/></clipPath><clipPath id="a18c45e90a"><path d="M 296.535156 120.046875 L 311.109375 256.144531 L 175.011719 270.714844 L 160.4375 134.621094 Z M 296.535156 120.046875 " clip-rule="nonzero"/></clipPath><clipPath id="1cf2cf7485"><path d="M 303.820312 188.09375 C 299.796875 150.511719 266.070312 123.308594 228.488281 127.332031 C 190.90625 131.355469 163.699219 165.085938 167.722656 202.667969 C 171.75 240.25 205.476562 267.453125 243.058594 263.429688 C 280.640625 259.40625 307.847656 225.675781 303.820312 188.09375 Z M 303.820312 188.09375 " clip-rule="nonzero"/></clipPath><clipPath id="b2c3316d49"><path d="M 90 180 L 210 180 L 210 224 L 90 224 Z M 90 180 " clip-rule="nonzero"/></clipPath><clipPath id="efa9d83632"><path d="M 207.3125 175.214844 L 211.742188 216.605469 L 92.582031 229.363281 L 88.152344 187.972656 Z M 207.3125 175.214844 " clip-rule="nonzero"/></clipPath><clipPath id="731ac24727"><path d="M 209.527344 195.910156 C 208.304688 184.480469 180.660156 178.066406 147.78125 181.589844 C 114.902344 185.109375 89.242188 197.230469 90.464844 208.660156 C 91.6875 220.089844 119.335938 226.5 152.210938 222.980469 C 185.089844 219.457031 210.75 207.339844 209.527344 195.910156 Z M 209.527344 195.910156 " clip-rule="nonzero"/></clipPath></defs><g clip-path="url(#93f83f8a35)"><g clip-path="url(#f8b579060c)"><g clip-path="url(#2c0da3fecd)"><path fill="#ffbd59" d="M 239.125 76.820312 C 241.261719 71.910156 243.476562 67.035156 245.507812 62.082031 C 246.941406 58.597656 248.125 55.003906 249.421875 51.460938 C 249.796875 51.585938 250.171875 51.710938 250.550781 51.835938 C 247.742188 61.003906 244.933594 70.175781 242.121094 79.34375 C 242.507812 79.488281 242.894531 79.632812 243.28125 79.777344 C 247.0625 70.921875 250.84375 62.0625 254.628906 53.207031 C 254.835938 53.269531 255.046875 53.332031 255.257812 53.398438 C 252.304688 62.902344 249.347656 72.402344 246.390625 81.90625 C 246.792969 82.058594 247.195312 82.210938 247.597656 82.367188 C 251.636719 73.265625 255.675781 64.160156 259.710938 55.058594 C 259.921875 55.132812 260.132812 55.210938 260.339844 55.285156 C 257.351562 64.398438 254.367188 73.511719 251.378906 82.628906 C 251.757812 82.78125 252.132812 82.933594 252.511719 83.089844 C 256.453125 74.359375 260.390625 65.628906 264.328125 56.898438 C 264.476562 56.933594 264.621094 56.964844 264.769531 56.996094 C 264.679688 57.546875 264.617188 58.105469 264.496094 58.652344 C 264.371094 59.214844 264.21875 59.777344 264.03125 60.324219 C 260.617188 70.25 257.226562 80.1875 253.75 90.09375 C 252.402344 93.945312 250.113281 96.902344 245.769531 97.785156 C 245.097656 97.917969 244.324219 98.816406 244.074219 99.527344 C 238.714844 114.734375 233.386719 129.945312 228.140625 145.191406 C 225.207031 153.710938 222.5 162.308594 219.539062 170.820312 C 218.558594 173.652344 217.054688 176.273438 213.664062 176.917969 C 213.042969 176.691406 212.421875 176.464844 211.800781 176.238281 C 209.636719 173.460938 210.21875 170.421875 211.3125 167.558594 C 214.703125 158.675781 218.316406 149.878906 221.753906 141.015625 C 227.398438 126.441406 232.980469 111.84375 238.546875 97.242188 C 238.78125 96.632812 238.898438 95.578125 238.5625 95.214844 C 235.824219 92.320312 235.945312 88.777344 236.058594 85.210938 C 237.082031 82.414062 238.105469 79.617188 239.125 76.820312 Z M 239.125 76.820312 " fill-opacity="1" fill-rule="evenodd"/></g></g></g><g clip-path="url(#c6bce15a44)"><g clip-path="url(#0c50c5cbb4)"><g clip-path="url(#4ace2a7414)"><path fill="#ffbd59" d="M 290.496094 65.972656 C 290.378906 67.585938 290.632812 69.332031 290.097656 70.789062 C 283.277344 89.328125 276.132812 107.75 269.5 126.351562 C 263.046875 144.453125 257.082031 162.734375 250.90625 180.929688 C 249.816406 184.148438 248.535156 187.203125 244.851562 188.285156 C 244.136719 188.023438 243.425781 187.761719 242.710938 187.503906 C 240.132812 184.636719 241.082031 181.457031 242.226562 178.503906 C 246.183594 168.304688 250.316406 158.179688 254.386719 148.03125 C 257.296875 140.769531 260.179688 133.496094 263.160156 126.265625 C 263.769531 124.789062 263.890625 123.523438 262.875 122.257812 C 260.894531 119.808594 261.085938 117.328125 262.144531 114.4375 C 266.953125 101.3125 271.738281 88.179688 279.035156 76.175781 C 281.621094 71.914062 284.300781 67.609375 289.207031 65.503906 C 289.640625 65.660156 290.066406 65.816406 290.496094 65.972656 Z M 290.496094 65.972656 " fill-opacity="1" fill-rule="evenodd"/></g></g></g><g clip-path="url(#2863a6770d)"><g clip-path="url(#1a33772b36)"><g clip-path="url(#2b420fee2c)"><path fill="#ffbd59" d="M 181.660156 179.101562 C 179.320312 185.949219 178.335938 193.105469 178.738281 200.363281 C 179.140625 207.621094 180.914062 214.625 184 221.167969 C 187.195312 227.945312 191.671875 233.9375 197.304688 238.976562 C 202.933594 244.011719 209.386719 247.796875 216.472656 250.222656 C 223.320312 252.5625 230.476562 253.550781 237.734375 253.148438 C 244.992188 252.742188 251.996094 250.96875 258.539062 247.886719 C 265.335938 244.6875 271.320312 240.222656 276.367188 234.578125 C 281.414062 228.9375 285.191406 222.496094 287.617188 215.410156 C 289.953125 208.5625 290.941406 201.40625 290.539062 194.148438 C 290.136719 186.890625 288.359375 179.886719 285.277344 173.34375 C 283.582031 169.746094 281.527344 166.371094 279.128906 163.25 C 286.085938 155.175781 292.261719 148.820312 297.054688 144.132812 C 305.171875 136.195312 311.90625 130.527344 320.800781 119.835938 C 326.066406 113.507812 329.992188 107.949219 332.519531 104.179688 C 335.6875 100.640625 335.386719 95.214844 331.847656 92.050781 C 328.933594 89.441406 323.761719 89.652344 319.71875 92.722656 C 316.234375 95.71875 310.96875 100.449219 305.035156 106.746094 C 295.425781 116.960938 290.921875 124.007812 283.539062 133.390625 C 279.699219 138.273438 274.402344 144.648438 267.507812 151.9375 C 263.003906 148.65625 258.074219 146.101562 252.78125 144.289062 C 245.9375 141.949219 238.777344 140.960938 231.519531 141.367188 C 224.265625 141.769531 217.261719 143.542969 210.714844 146.628906 C 203.941406 149.824219 197.949219 154.300781 192.910156 159.929688 C 187.871094 165.5625 184.09375 172.003906 181.660156 179.101562 Z M 288.398438 189.125 C 288.324219 188.625 288.246094 188.144531 288.148438 187.644531 C 288.253906 188.132812 288.332031 188.632812 288.398438 189.125 Z M 282.191406 170.824219 C 282.003906 170.488281 281.816406 170.152344 281.609375 169.816406 C 281.804688 170.144531 282.011719 170.476562 282.191406 170.824219 Z M 326.296875 97.75 C 327.589844 98.902344 326.683594 102.03125 324.261719 104.738281 C 321.839844 107.441406 318.835938 108.6875 317.542969 107.535156 C 316.253906 106.378906 317.15625 103.253906 319.578125 100.546875 C 322 97.859375 325.007812 96.59375 326.296875 97.75 Z M 326.296875 97.75 " fill-opacity="1" fill-rule="nonzero"/></g></g></g><g clip-path="url(#f55f575496)"><g clip-path="url(#7e8a9a7217)"><g clip-path="url(#66b1847cae)"><path fill="#ff914d" d="M 296.535156 120.046875 L 311.109375 256.148438 L 175.007812 270.722656 L 160.433594 134.621094 Z M 296.535156 120.046875 " fill-opacity="1" fill-rule="nonzero"/></g></g></g><g clip-path="url(#ed389a9843)"><g clip-path="url(#f7d0c488f8)"><g clip-path="url(#a18c45e90a)"><g clip-path="url(#1cf2cf7485)"><path stroke-linecap="butt" transform="matrix(0.0798527, 0.745737, -0.745737, 0.0798527, 296.534956, 120.04612)" fill="none" stroke-linejoin="miter" d="M 91.248685 0.00147496 C 40.852969 0.000405104 0.000466064 40.851781 -0.000603788 91.247498 C -0.00167364 141.643215 40.854327 182.501451 91.250044 182.502521 C 141.646315 182.498412 182.498818 141.647036 182.499887 91.251319 C 182.500957 40.855602 141.644957 -0.00263392 91.248685 0.00147496 Z M 91.248685 0.00147496 " stroke="#ffbd59" stroke-width="10" stroke-opacity="1" stroke-miterlimit="4"/></g></g></g></g><g clip-path="url(#b2c3316d49)"><g clip-path="url(#efa9d83632)"><g clip-path="url(#731ac24727)"><path fill="#ff914d" d="M 207.3125 175.214844 L 211.742188 216.605469 L 92.746094 229.347656 L 88.3125 187.957031 Z M 207.3125 175.214844 " fill-opacity="1" fill-rule="nonzero"/></g></g></g><path stroke-linecap="butt" transform="matrix(1.433428, -0.186946, 0.186946, 1.433428, 86.831, 146.052631)" fill="none" stroke-linejoin="miter" d="M 0.332887 28.565853 C 1.531337 28.654025 2.504348 28.214101 3.246213 27.248061 C 3.996116 26.28307 4.370647 24.999337 4.369457 23.399542 L 4.370299 2.999476 C 4.370752 2.160202 4.270548 1.3405 4.069337 0.543053 C 3.868826 -0.259754 3.577913 -0.829091 3.196949 -1.167638 L 13.036993 -1.165114 C 12.655457 -0.830633 12.366543 -0.266063 12.165241 0.525216 C 11.964289 1.313816 11.863761 2.126414 11.862959 2.968369 L 11.862687 22.570051 C 11.86355 25.614112 11.218751 27.862712 9.92829 29.315853 C 8.640509 30.769342 6.84244 31.496805 4.531755 31.49521 C 4.000159 31.496733 3.407749 31.400396 2.751145 31.211208 C 2.093842 31.02738 1.52636 30.71901 1.049047 30.283419 C 0.571385 29.850508 0.332782 29.277093 0.332887 28.565853 Z M 0.332887 28.565853 " stroke="#ff914d" stroke-width="8.749991" stroke-opacity="1" stroke-miterlimit="4"/><path stroke-linecap="butt" transform="matrix(1.441254, -0.111591, 0.111591, 1.441254, 107.718096, 143.157471)" fill="none" stroke-linejoin="miter" d="M 12.295081 31.496345 C 10.053659 31.496261 8.081708 30.99124 6.37902 29.983976 C 4.68193 28.974436 3.360999 27.552238 2.41602 25.720079 C 1.473944 23.885434 1.001854 21.75652 0.999958 19.330643 C 1.001799 16.891503 1.473327 14.757051 2.416609 12.935576 C 3.3601 11.111407 4.681206 9.69592 6.379926 8.689113 C 8.081967 7.674433 10.053802 7.165788 12.295225 7.165872 C 14.563798 7.165348 16.546317 7.673898 18.24299 8.688827 C 19.948372 9.696299 21.26972 11.113108 22.215533 12.93449 C 23.158444 14.758359 23.630325 16.889967 23.63097 19.332009 C 23.63038 21.754984 23.159061 23.886742 22.214944 25.718993 C 21.270828 27.551245 19.946402 28.974606 18.244779 29.983898 C 16.546058 30.990705 14.563654 31.495821 12.295081 31.496345 Z M 7.998196 19.36295 C 7.997524 21.121891 8.381477 22.533879 9.146942 23.604093 C 9.915728 24.666433 10.966848 25.197729 12.294915 25.197564 C 13.631063 25.198024 14.685823 24.667159 15.462097 23.602483 C 16.241274 22.535321 16.63265 21.121027 16.633113 19.36478 C 16.632343 17.589465 16.240725 16.171463 15.461163 15.108288 C 14.684712 14.039934 13.631106 13.505735 12.294957 13.505275 C 10.966891 13.50544 9.917311 14.039416 9.146216 15.107204 C 8.380928 16.17002 7.999911 17.590537 7.998196 19.36295 Z M 7.998196 19.36295 " stroke="#ff914d" stroke-width="8.749991" stroke-opacity="1" stroke-miterlimit="4"/><path stroke-linecap="butt" transform="matrix(1.445464, -0.017271, 0.017271, 1.445464, 145.115004, 140.363854)" fill="none" stroke-linejoin="miter" d="M 0.332583 10.967291 C 1.374368 9.723114 2.628764 8.778743 4.09307 8.134146 C 5.562779 7.489615 7.24214 7.166473 9.13112 7.167424 C 10.730981 7.16492 12.258008 7.37774 13.712263 7.800479 C 15.16922 8.22325 16.466908 8.857609 17.599892 9.706194 C 18.735675 10.546705 19.63129 11.584325 20.294811 12.821854 C 20.961098 14.054011 21.295251 15.490285 21.294536 17.133347 L 21.295595 23.829954 C 21.296243 24.45422 21.34823 25.0791 21.456992 25.701956 C 21.57119 26.322174 21.810973 26.835797 22.173575 27.248194 C 22.54158 27.660657 23.128234 27.867645 23.930867 27.866426 L 23.931632 28.02858 C 23.287118 28.366789 22.607122 28.7343 21.896984 29.136583 C 21.186911 29.533461 20.504116 29.909046 19.845833 30.26871 C 19.190349 30.6203 18.611233 30.913349 18.113919 31.145219 C 17.613872 31.37976 17.263857 31.497186 17.063874 31.497499 C 16.509893 31.496285 16.039749 31.263664 15.648071 30.796871 C 15.256393 30.330077 14.960706 29.745524 14.760979 29.045914 C 14.566656 28.346368 14.466711 27.664164 14.469281 26.996698 L 14.468245 23.464624 C 14.044093 24.132458 13.570497 24.867262 13.044756 25.669004 C 12.524451 26.468108 12.023318 27.245821 11.54673 28.004911 C 11.070206 28.758597 10.665388 29.391531 10.33501 29.901043 C 10.177798 30.166704 9.765755 30.499583 9.096147 30.90235 C 8.429339 31.297043 7.640561 31.495705 6.729847 31.495633 C 5.351617 31.49538 4.228 31.21982 3.361733 30.666283 C 2.498168 30.112779 1.871907 29.375643 1.480281 28.452141 C 1.096729 27.531438 0.903642 26.502212 0.90366 25.369899 C 0.904226 24.191651 1.174027 23.097693 1.715732 22.090758 C 2.260236 21.07575 2.997834 20.184658 3.931195 19.420216 C 4.864621 18.650369 5.917604 18.052204 7.095581 17.623083 C 8.279027 17.188621 9.511228 16.970936 10.797557 16.972794 C 12.110939 16.972272 13.278304 17.205116 14.296951 17.671294 C 14.009981 16.357192 13.414196 15.331261 12.515062 14.588162 C 11.613226 13.845031 10.506984 13.472392 9.196304 13.472946 C 7.99644 13.472121 6.923626 13.694414 5.980565 14.139854 C 5.037568 14.579891 4.253658 15.275856 3.628803 16.230451 C 3.098059 15.189083 2.576607 14.27484 2.067147 13.487753 C 1.557719 12.697965 0.978652 11.855999 0.332583 10.967291 Z M 7.99851 22.798193 C 8.000192 23.335995 8.175287 23.835332 8.529105 24.304376 C 8.885656 24.770749 9.509848 25.002508 10.398946 25.002322 C 11.174527 25.003482 11.923323 24.758401 12.645302 24.269783 C 13.37275 23.775825 13.98064 23.110186 14.469037 22.267462 L 14.46669 19.297475 C 14.468756 19.124545 14.462813 18.943412 14.451563 18.754109 C 14.440313 18.564805 14.420795 18.388914 14.395647 18.231874 C 14.199658 18.124137 13.984432 18.043196 13.75267 17.989081 C 13.518271 17.929529 13.267305 17.899506 12.994367 17.898948 C 12.062037 17.898617 11.218379 18.166886 10.463395 18.703754 C 9.711176 19.23525 9.111651 19.879369 8.664849 20.63341 C 8.22075 21.387484 7.998637 22.109078 7.99851 22.798193 Z M 7.99851 22.798193 " stroke="#ff914d" stroke-width="8.749991" stroke-opacity="1" stroke-miterlimit="4"/><path stroke-linecap="butt" transform="matrix(1.443582, 0.0757345, -0.0757345, 1.443582, 180.130627, 139.9821)" fill="none" stroke-linejoin="miter" d="M -1.333466 11.071188 L -1.33429 10.900757 C -0.511243 10.857577 0.373887 10.708315 1.318402 10.453111 C 2.262917 10.197908 3.195797 9.875666 4.117042 9.486386 C 5.040844 9.094266 5.904854 8.697165 6.714186 8.289403 C 7.525933 7.876102 8.20985 7.501979 8.763239 7.167176 L 8.764791 14.830322 L 12.164186 8.035952 C 12.608768 7.793446 13.082317 7.587304 13.582134 7.417668 C 14.079395 7.250871 14.640553 7.167312 15.265609 7.166991 C 17.376255 7.167204 19.040268 7.78345 20.26063 9.020985 C 21.488804 10.252697 22.101189 12.125553 22.10034 14.636712 L 22.101697 26.835028 C 22.101559 27.657641 22.198708 28.477857 22.392863 29.290277 C 22.594972 30.099575 22.884609 30.668863 23.264614 31.000699 L 14.102243 30.999726 C 14.477247 30.668869 14.764234 30.104507 14.963204 29.306639 C 15.164732 28.505931 15.265423 27.691572 15.26542 26.86626 L 15.26606 16.304934 C 15.264109 15.236189 14.985593 14.414665 14.42767 13.837804 C 13.875003 13.257962 13.188641 12.966551 12.368868 12.96897 C 11.32157 12.967089 10.519209 13.301425 9.958947 13.96942 C 9.40678 14.636991 9.008986 15.358699 8.762867 16.134687 L 8.76405 26.83392 C 8.764053 27.659233 8.86376 28.476608 9.066152 29.291302 C 9.265562 30.100741 9.555199 30.67003 9.935063 30.999167 L 0.764738 31.001317 C 1.145138 30.670177 1.434824 30.105673 1.636493 29.307664 C 1.83518 28.504399 1.935872 27.69004 1.93601 26.867426 L 1.936162 15.832586 C 1.936913 15.589012 1.911696 15.211503 1.863209 14.699918 C 1.820261 14.190748 1.69764 13.658699 1.498187 13.106326 C 1.295752 12.548699 0.973007 12.070444 0.530095 11.674259 C 0.0895987 11.272536 -0.532441 11.072459 -1.333466 11.071188 Z M -1.333466 11.071188 " stroke="#ff914d" stroke-width="8.749991" stroke-opacity="1" stroke-miterlimit="4"/><path stroke-linecap="butt" transform="matrix(1.435722, 0.168426, -0.168426, 1.435722, 216.53772, 141.975327)" fill="none" stroke-linejoin="miter" d="M 0.332539 10.96731 C 1.375654 9.723989 2.628 8.779893 4.09226 8.134707 C 5.561888 7.488891 7.240897 7.16677 9.128972 7.165659 C 10.731467 7.1654 12.258274 7.378077 13.711761 7.800692 C 15.170617 8.222677 16.466957 8.85962 17.600153 9.706156 C 18.735402 10.547009 19.632525 11.584484 20.294521 12.82095 C 20.961568 14.054102 21.295926 15.489528 21.29554 17.132911 L 21.295058 23.831469 C 21.294694 24.454565 21.34895 25.079416 21.457513 25.703337 C 21.570814 26.321261 21.810915 26.837246 22.174817 27.248922 C 22.541403 27.660284 23.128753 27.866178 23.9315 27.867233 L 23.931604 28.030466 C 23.285505 28.367453 22.607666 28.735372 21.8984 29.136905 C 21.185821 29.533385 20.503558 29.909985 19.846245 30.267333 C 19.190985 30.618999 18.613257 30.912596 18.112746 31.14544 C 17.615233 31.380653 17.264102 31.495305 17.06298 31.497133 C 16.510608 31.496634 16.039772 31.263468 15.647473 30.795266 C 15.258172 30.329434 14.961262 29.746653 14.76211 29.046294 C 14.565956 28.348305 14.466569 27.663451 14.467264 26.996784 L 14.469223 23.465012 C 14.044185 24.132486 13.570028 24.868299 13.043754 25.670082 C 12.522533 26.468552 12.023262 27.245402 11.546571 28.005999 C 11.068936 28.758545 10.664275 29.390979 10.334956 29.900303 C 10.175739 30.166569 9.763283 30.500634 9.097588 30.902498 C 8.431263 31.298994 7.640765 31.495117 6.729405 31.49592 C 5.352816 31.496885 4.229377 31.220564 3.361772 30.666641 C 2.496852 30.112404 1.871632 29.374964 1.480431 28.452267 C 1.094912 27.531624 0.903603 26.503855 0.903821 25.369274 C 0.904369 24.191122 1.173418 23.098465 1.716337 22.090672 C 2.258311 21.074827 2.997417 20.185499 3.930657 19.420317 C 4.863267 18.649767 5.919272 18.049754 7.096302 17.623275 C 8.277755 17.188114 9.512179 16.972563 10.798943 16.971253 C 12.110491 16.972476 13.277831 17.205557 14.298279 17.67081 C 14.008241 16.35806 13.414374 15.331262 12.516364 14.587733 C 11.615671 13.844519 10.508051 13.471115 9.194133 13.47289 C 7.99688 13.471862 6.92395 13.695676 5.980397 14.141019 C 5.0359 14.578309 4.252654 15.276922 3.630031 16.231487 C 3.096948 15.189397 2.576294 14.276445 2.067753 13.489947 C 1.555584 12.695713 0.978074 11.854729 0.332539 10.96731 Z M 7.999948 22.798255 C 7.99756 23.334524 8.176098 23.835965 8.52751 24.303522 C 8.886974 24.770134 9.509993 25.001771 10.399882 25.003487 C 11.175161 25.002323 11.924788 24.7593 12.645449 24.269366 C 13.371164 23.776118 13.978536 23.10902 14.467567 22.268074 L 14.467603 19.299724 C 14.468923 19.125441 14.463932 18.943736 14.452628 18.754609 C 14.44101 18.562798 14.42086 18.391034 14.394233 18.233633 C 14.198989 18.12322 13.985424 18.042164 13.750537 17.988096 C 13.517705 17.928346 13.266551 17.897952 12.994706 17.899915 C 12.061246 17.897869 11.219574 18.168014 10.463693 18.705612 C 9.709866 19.237528 9.110395 19.879212 8.665595 20.633347 C 8.220796 21.387482 7.998124 22.110118 7.999948 22.798255 Z M 7.999948 22.798255 " stroke="#ff914d" stroke-width="8.749991" stroke-opacity="1" stroke-miterlimit="4"/><g fill="#ffffff" fill-opacity="1"><g transform="translate(92.626321, 190.488907)"><g><path d="M 0.03125 -3.546875 C 1.75 -3.640625 3.054688 -4.445312 3.953125 -5.96875 C 4.847656 -7.5 5.144531 -9.410156 4.84375 -11.703125 L 1.03125 -40.953125 C 0.875 -42.160156 0.570312 -43.316406 0.125 -44.421875 C -0.3125 -45.535156 -0.828125 -46.296875 -1.421875 -46.703125 L 12.671875 -48.546875 C 12.179688 -47.992188 11.867188 -47.132812 11.734375 -45.96875 C 11.597656 -44.800781 11.613281 -43.613281 11.78125 -42.40625 L 15.4375 -14.296875 C 16.007812 -9.941406 15.503906 -6.597656 13.921875 -4.265625 C 12.347656 -1.941406 9.898438 -0.5625 6.578125 -0.125 C 5.816406 -0.03125 4.945312 -0.0546875 3.96875 -0.203125 C 3 -0.347656 2.132812 -0.6875 1.375 -1.21875 C 0.613281 -1.75 0.164062 -2.523438 0.03125 -3.546875 Z M 0.03125 -3.546875 "/></g></g></g><g fill="#ffffff" fill-opacity="1"><g transform="translate(111.177403, 187.836343)"><g><path d="M 17.796875 -0.65625 C 14.566406 -0.40625 11.664062 -0.910156 9.09375 -2.171875 C 6.53125 -3.429688 4.46875 -5.332031 2.90625 -7.875 C 1.34375 -10.414062 0.425781 -13.429688 0.15625 -16.921875 C -0.125 -20.453125 0.3125 -23.578125 1.46875 -26.296875 C 2.625 -29.023438 4.375 -31.210938 6.71875 -32.859375 C 9.0625 -34.515625 11.847656 -35.46875 15.078125 -35.71875 C 18.347656 -35.96875 21.257812 -35.457031 23.8125 -34.1875 C 26.363281 -32.925781 28.421875 -31.035156 29.984375 -28.515625 C 31.554688 -26.003906 32.484375 -22.984375 32.765625 -19.453125 C 33.035156 -15.960938 32.585938 -12.84375 31.421875 -10.09375 C 30.265625 -7.34375 28.519531 -5.144531 26.1875 -3.5 C 23.863281 -1.851562 21.066406 -0.90625 17.796875 -0.65625 Z M 10.234375 -17.65625 C 10.429688 -15.132812 11.140625 -13.144531 12.359375 -11.6875 C 13.585938 -10.238281 15.164062 -9.585938 17.09375 -9.734375 C 19.007812 -9.878906 20.46875 -10.765625 21.46875 -12.390625 C 22.46875 -14.023438 22.867188 -16.101562 22.671875 -18.625 C 22.472656 -21.1875 21.753906 -23.191406 20.515625 -24.640625 C 19.273438 -26.085938 17.695312 -26.738281 15.78125 -26.59375 C 13.851562 -26.445312 12.394531 -25.5625 11.40625 -23.9375 C 10.425781 -22.3125 10.035156 -20.21875 10.234375 -17.65625 Z M 10.234375 -17.65625 "/></g></g></g><g fill="#ffffff" fill-opacity="1"><g transform="translate(145.650405, 185.173249)"><g><path d="M 0.140625 -28.953125 C 1.628906 -30.773438 3.425781 -32.164062 5.53125 -33.125 C 7.644531 -34.082031 10.066406 -34.578125 12.796875 -34.609375 C 15.109375 -34.640625 17.316406 -34.363281 19.421875 -33.78125 C 21.535156 -33.195312 23.421875 -32.300781 25.078125 -31.09375 C 26.734375 -29.882812 28.050781 -28.394531 29.03125 -26.625 C 30.019531 -24.863281 30.53125 -22.796875 30.5625 -20.421875 L 30.671875 -10.734375 C 30.679688 -9.835938 30.769531 -8.9375 30.9375 -8.03125 C 31.113281 -7.132812 31.46875 -6.390625 32 -5.796875 C 32.539062 -5.210938 33.390625 -4.925781 34.546875 -4.9375 L 34.546875 -4.6875 C 33.617188 -4.195312 32.644531 -3.65625 31.625 -3.0625 C 30.601562 -2.476562 29.625 -1.925781 28.6875 -1.40625 C 27.75 -0.882812 26.921875 -0.445312 26.203125 -0.09375 C 25.484375 0.25 24.976562 0.421875 24.6875 0.421875 C 23.882812 0.429688 23.195312 0.101562 22.625 -0.5625 C 22.050781 -1.226562 21.613281 -2.066406 21.3125 -3.078125 C 21.007812 -4.085938 20.851562 -5.070312 20.84375 -6.03125 L 20.78125 -11.140625 C 20.1875 -10.160156 19.515625 -9.085938 18.765625 -7.921875 C 18.023438 -6.765625 17.316406 -5.632812 16.640625 -4.53125 C 15.960938 -3.4375 15.390625 -2.515625 14.921875 -1.765625 C 14.691406 -1.378906 14.097656 -0.890625 13.140625 -0.296875 C 12.191406 0.285156 11.0625 0.585938 9.75 0.609375 C 7.757812 0.628906 6.128906 0.25 4.859375 -0.53125 C 3.597656 -1.320312 2.675781 -2.378906 2.09375 -3.703125 C 1.519531 -5.035156 1.222656 -6.519531 1.203125 -8.15625 C 1.179688 -9.863281 1.550781 -11.453125 2.3125 -12.921875 C 3.082031 -14.390625 4.132812 -15.6875 5.46875 -16.8125 C 6.8125 -17.9375 8.332031 -18.820312 10.03125 -19.46875 C 11.726562 -20.113281 13.507812 -20.445312 15.375 -20.46875 C 17.269531 -20.488281 18.957031 -20.175781 20.4375 -19.53125 C 20 -21.414062 19.125 -22.882812 17.8125 -23.9375 C 16.5 -25 14.894531 -25.519531 13 -25.5 C 11.269531 -25.476562 9.722656 -25.140625 8.359375 -24.484375 C 7.003906 -23.828125 5.882812 -22.800781 5 -21.40625 C 4.207031 -22.90625 3.429688 -24.21875 2.671875 -25.34375 C 1.921875 -26.476562 1.078125 -27.679688 0.140625 -28.953125 Z M 11.421875 -12 C 11.429688 -11.226562 11.695312 -10.503906 12.21875 -9.828125 C 12.738281 -9.160156 13.640625 -8.832031 14.921875 -8.84375 C 16.046875 -8.863281 17.128906 -9.234375 18.171875 -9.953125 C 19.210938 -10.671875 20.070312 -11.644531 20.75 -12.875 L 20.703125 -17.15625 C 20.703125 -17.414062 20.691406 -17.679688 20.671875 -17.953125 C 20.648438 -18.234375 20.625 -18.484375 20.59375 -18.703125 C 20.3125 -18.867188 20 -18.988281 19.65625 -19.0625 C 19.320312 -19.132812 18.960938 -19.164062 18.578125 -19.15625 C 17.222656 -19.144531 16.003906 -18.742188 14.921875 -17.953125 C 13.835938 -17.171875 12.976562 -16.226562 12.34375 -15.125 C 11.71875 -14.03125 11.410156 -12.988281 11.421875 -12 Z M 11.421875 -12 "/></g></g></g><g fill="#ffffff" fill-opacity="1"><g transform="translate(177.782857, 184.73315)"><g><path d="M -0.40625 -28.859375 L -0.40625 -29.109375 C 0.789062 -29.109375 2.078125 -29.257812 3.453125 -29.5625 C 4.835938 -29.863281 6.207031 -30.257812 7.5625 -30.75 C 8.925781 -31.238281 10.207031 -31.75 11.40625 -32.28125 C 12.613281 -32.820312 13.632812 -33.3125 14.46875 -33.75 L 13.875 -22.6875 L 19.296875 -32.234375 C 19.953125 -32.554688 20.648438 -32.816406 21.390625 -33.015625 C 22.128906 -33.222656 22.945312 -33.300781 23.84375 -33.25 C 26.894531 -33.09375 29.253906 -32.078125 30.921875 -30.203125 C 32.597656 -28.328125 33.335938 -25.578125 33.140625 -21.953125 L 32.21875 -4.328125 C 32.15625 -3.148438 32.234375 -1.96875 32.453125 -0.78125 C 32.679688 0.40625 33.0625 1.253906 33.59375 1.765625 L 20.359375 1.0625 C 20.921875 0.613281 21.375 -0.175781 21.71875 -1.3125 C 22.070312 -2.457031 22.28125 -3.617188 22.34375 -4.796875 L 23.140625 -20.0625 C 23.222656 -21.601562 22.882812 -22.8125 22.125 -23.6875 C 21.363281 -24.5625 20.390625 -25.03125 19.203125 -25.09375 C 17.703125 -25.175781 16.523438 -24.753906 15.671875 -23.828125 C 14.828125 -22.910156 14.195312 -21.898438 13.78125 -20.796875 L 12.96875 -5.34375 C 12.90625 -4.164062 12.988281 -2.984375 13.21875 -1.796875 C 13.445312 -0.609375 13.820312 0.238281 14.34375 0.75 L 1.109375 0.0625 C 1.671875 -0.394531 2.128906 -1.191406 2.484375 -2.328125 C 2.835938 -3.472656 3.046875 -4.632812 3.109375 -5.8125 L 3.9375 -21.75 C 3.957031 -22.101562 3.957031 -22.648438 3.9375 -23.390625 C 3.914062 -24.128906 3.78125 -24.90625 3.53125 -25.71875 C 3.28125 -26.539062 2.847656 -27.253906 2.234375 -27.859375 C 1.628906 -28.472656 0.75 -28.804688 -0.40625 -28.859375 Z M -0.40625 -28.859375 "/></g></g></g><g fill="#ffffff" fill-opacity="1"><g transform="translate(211.316501, 186.482712)"><g><path d="M 3.859375 -28.6875 C 5.566406 -30.300781 7.523438 -31.445312 9.734375 -32.125 C 11.953125 -32.8125 14.414062 -33 17.125 -32.6875 C 19.425781 -32.414062 21.582031 -31.851562 23.59375 -31 C 25.613281 -30.15625 27.367188 -29.023438 28.859375 -27.609375 C 30.347656 -26.203125 31.46875 -24.554688 32.21875 -22.671875 C 32.96875 -20.796875 33.203125 -18.675781 32.921875 -16.3125 L 31.796875 -6.6875 C 31.691406 -5.800781 31.664062 -4.898438 31.71875 -3.984375 C 31.769531 -3.078125 32.023438 -2.296875 32.484375 -1.640625 C 32.941406 -0.992188 33.742188 -0.601562 34.890625 -0.46875 L 34.859375 -0.21875 C 33.890625 0.15625 32.859375 0.566406 31.765625 1.015625 C 30.671875 1.460938 29.625 1.882812 28.625 2.28125 C 27.625 2.675781 26.742188 3 25.984375 3.25 C 25.234375 3.507812 24.710938 3.625 24.421875 3.59375 C 23.628906 3.5 22.988281 3.082031 22.5 2.34375 C 22.019531 1.613281 21.691406 0.726562 21.515625 -0.3125 C 21.347656 -1.351562 21.320312 -2.347656 21.4375 -3.296875 L 22.03125 -8.375 C 21.3125 -7.488281 20.507812 -6.515625 19.625 -5.453125 C 18.75 -4.390625 17.898438 -3.359375 17.078125 -2.359375 C 16.265625 -1.359375 15.578125 -0.519531 15.015625 0.15625 C 14.753906 0.507812 14.109375 0.914062 13.078125 1.375 C 12.054688 1.84375 10.894531 2.003906 9.59375 1.859375 C 7.613281 1.617188 6.046875 1.023438 4.890625 0.078125 C 3.742188 -0.859375 2.960938 -2.019531 2.546875 -3.40625 C 2.140625 -4.800781 2.035156 -6.304688 2.234375 -7.921875 C 2.429688 -9.617188 3.003906 -11.144531 3.953125 -12.5 C 4.898438 -13.863281 6.109375 -15.019531 7.578125 -15.96875 C 9.054688 -16.914062 10.675781 -17.597656 12.4375 -18.015625 C 14.195312 -18.429688 16.003906 -18.535156 17.859375 -18.328125 C 19.742188 -18.097656 21.382812 -17.570312 22.78125 -16.75 C 22.582031 -18.675781 21.898438 -20.25 20.734375 -21.46875 C 19.566406 -22.6875 18.039062 -23.40625 16.15625 -23.625 C 14.4375 -23.820312 12.863281 -23.679688 11.4375 -23.203125 C 10.007812 -22.734375 8.765625 -21.863281 7.703125 -20.59375 C 7.109375 -22.175781 6.507812 -23.578125 5.90625 -24.796875 C 5.3125 -26.015625 4.628906 -27.3125 3.859375 -28.6875 Z M 12.859375 -10.4375 C 12.773438 -9.664062 12.945312 -8.910156 13.375 -8.171875 C 13.8125 -7.441406 14.664062 -7.003906 15.9375 -6.859375 C 17.0625 -6.722656 18.179688 -6.945312 19.296875 -7.53125 C 20.421875 -8.113281 21.398438 -8.96875 22.234375 -10.09375 L 22.734375 -14.359375 C 22.765625 -14.609375 22.785156 -14.867188 22.796875 -15.140625 C 22.816406 -15.421875 22.828125 -15.675781 22.828125 -15.90625 C 22.554688 -16.101562 22.257812 -16.257812 21.9375 -16.375 C 21.613281 -16.5 21.257812 -16.582031 20.875 -16.625 C 19.53125 -16.78125 18.269531 -16.535156 17.09375 -15.890625 C 15.925781 -15.253906 14.957031 -14.429688 14.1875 -13.421875 C 13.414062 -12.410156 12.972656 -11.414062 12.859375 -10.4375 Z M 12.859375 -10.4375 "/></g></g></g><path stroke-linecap="butt" transform="matrix(1.271019, -0.238381, 0.238381, 1.271019, 68.305334, 207.82213)" fill="none" stroke-linejoin="miter" d="M 1.830884 3.000378 C 1.832039 2.158504 1.730394 1.340377 1.529475 0.543584 C 1.333195 -0.261559 1.046723 -0.831605 0.667089 -1.167112 L 14.598361 -1.166607 C 15.910623 -1.166356 17.225471 -0.950488 18.545319 -0.515476 C 19.868692 -0.0828766 21.073854 0.570345 22.164888 1.438807 C 23.256479 2.304301 24.127246 3.380391 24.778303 4.661139 C 25.434 5.933538 25.761621 7.414859 25.761723 9.102131 C 25.761608 11.413248 25.133587 13.336147 23.874133 14.873241 C 22.622288 16.402543 21.008814 17.467562 19.033155 18.071267 L 20.930044 23.09848 C 21.862533 25.566067 22.72788 27.424838 23.523674 28.671266 C 24.325962 29.915839 25.040876 30.692246 25.665447 30.999931 L 14.663197 30.998643 C 14.907404 30.712526 15.04585 30.30208 15.077978 29.770274 C 15.117157 29.233645 14.976722 28.589568 14.663725 27.833221 L 9.331912 13.034019 L 9.334381 26.867502 C 9.333598 27.691006 9.432831 28.505607 9.635605 29.308895 C 9.836524 30.105688 10.121141 30.66924 10.495394 31.000663 L 0.666794 31.00129 C 1.045533 30.669718 1.333732 30.099885 1.528421 29.291236 C 1.730162 28.477763 1.831703 27.65779 1.829517 26.83373 Z M 9.331912 13.034019 L 14.101663 13.034255 C 15.05784 13.032261 15.841644 12.835053 16.463095 12.438362 C 17.085103 12.038703 17.551804 11.533082 17.862643 10.924469 C 18.177007 10.313445 18.33439 9.703711 18.333121 9.104175 C 18.332987 8.056148 17.982515 7.139106 17.284673 6.353607 C 16.584419 5.564583 15.545317 5.173006 14.165513 5.172381 L 9.334157 5.172883 Z M 9.331912 13.034019 " stroke="#ff914d" stroke-width="8.749991" stroke-opacity="1" stroke-miterlimit="4"/><path stroke-linecap="butt" transform="matrix(1.28406, -0.153317, 0.153317, 1.28406, 103.62361, 201.35212)" fill="none" stroke-linejoin="miter" d="M 12.530831 31.497036 C 10.578031 31.495071 8.873012 31.175892 7.413133 30.536139 C 5.959969 29.891104 4.76063 29.005628 3.817757 27.883069 C 2.871885 26.760151 2.168601 25.465419 1.701549 24.001156 C 1.234497 22.536893 1.000364 20.981799 0.999867 19.329874 C 1.001295 17.687305 1.244506 16.134447 1.732859 14.66866 C 2.221211 13.202872 2.959674 11.909927 3.945606 10.786466 C 4.940536 9.66408 6.174699 8.780164 7.648094 8.134718 C 9.124488 7.48963 10.863796 7.164934 12.865302 7.16663 C 14.550577 7.167073 16.02684 7.516739 17.29109 8.21527 C 18.561339 8.914518 19.54571 9.816916 20.244919 10.916466 C 20.943771 12.019016 21.294384 13.159081 21.293761 14.336303 C 21.295017 15.446823 20.998622 16.527888 20.408291 17.573857 C 19.821675 18.614185 18.856334 19.463272 17.51227 20.121118 C 16.172279 20.770324 14.356555 21.098064 12.065813 21.098339 L 8.169211 21.095485 C 8.435396 22.280227 8.96691 23.204607 9.763395 23.871624 C 10.566596 24.533359 11.588659 24.865299 12.832941 24.864803 C 13.657225 24.865875 14.361444 24.700506 14.9486 24.369054 C 15.53947 24.031961 16.026304 23.648983 16.412099 23.220478 C 16.80461 22.78669 17.076117 22.423634 17.235977 22.129384 C 17.789292 22.998567 18.440243 23.83986 19.194828 24.65398 C 19.956128 25.462817 20.680181 26.175944 21.368914 26.802716 C 20.386117 28.35853 19.099579 29.528235 17.511941 30.315188 C 15.927302 31.1025 14.267812 31.497568 12.530831 31.497036 Z M 8.097136 20.730952 C 9.163874 20.535857 10.200171 20.188064 11.196669 19.689498 C 12.199883 19.185649 13.026672 18.554262 13.679319 17.801692 C 14.335324 17.046481 14.662206 16.194172 14.66368 15.239126 C 14.662336 14.791775 14.510084 14.35987 14.198643 13.936336 C 13.890202 13.51316 13.376865 13.302804 12.66199 13.302627 C 12.020174 13.302047 11.338785 13.530984 10.612183 13.985723 C 9.88858 14.44082 9.272238 15.11863 8.763157 16.019153 C 8.254076 16.919675 7.997523 18.023749 7.999497 19.332092 C 7.998469 19.824791 8.031015 20.291078 8.097136 20.730952 Z M 8.097136 20.730952 " stroke="#ff914d" stroke-width="8.749991" stroke-opacity="1" stroke-miterlimit="4"/><path stroke-linecap="butt" transform="matrix(1.290916, -0.0764985, 0.0764985, 1.290916, 133.456388, 197.849195)" fill="none" stroke-linejoin="miter" d="M 1.000398 19.330386 C 1.000934 17.687325 1.244262 16.134301 1.733578 14.668477 C 2.222893 13.202652 2.959222 11.908815 3.945581 10.787144 C 4.938149 9.662815 6.173622 8.779827 7.649163 8.134985 C 9.124703 7.490144 10.862625 7.166472 12.865765 7.167164 C 14.309276 7.164953 15.56255 7.360259 16.63162 7.75344 C 17.700868 8.143606 18.585085 8.592403 19.284091 9.102848 C 19.986113 9.613472 20.51025 10.062114 20.865371 10.452324 C 21.220312 10.84555 21.39938 11.040745 21.39938 11.040745 C 20.712793 11.750494 20.027234 12.545032 19.348732 13.424714 C 18.670588 14.298366 18.076896 15.125581 17.567657 15.906359 C 17.211465 15.125737 16.652818 14.493494 15.900406 14.016195 C 15.144979 13.538718 14.314771 13.301911 13.400915 13.302224 C 12.378148 13.302135 11.457435 13.571352 10.641969 14.107037 C 9.835727 14.640243 9.190819 15.36154 8.71629 16.271465 C 8.238567 17.184227 7.999728 18.201924 7.999416 19.330586 C 7.998858 21.025087 8.418485 22.369269 9.261134 23.366327 C 10.10662 24.366579 11.296617 24.863757 12.833783 24.864069 C 13.656821 24.864426 14.362505 24.70048 14.948 24.369035 C 15.539882 24.031917 16.02855 23.649346 16.414003 23.22132 C 16.802828 22.787443 17.078633 22.422517 17.235209 22.1292 C 17.788964 22.997178 18.440998 23.84072 19.194682 24.653975 C 19.954755 25.461557 20.677974 26.176176 21.367175 26.801026 C 20.385238 28.358696 19.099442 29.529194 17.512624 30.315713 C 15.925805 31.102232 14.268382 31.497245 12.531488 31.4972 C 10.579788 31.496531 8.87088 31.177394 7.41399 30.53731 C 5.960473 29.891375 4.760179 29.006265 3.816124 27.88216 C 2.871891 26.76107 2.167903 25.466608 1.700969 24.00161 C 1.234034 22.536612 0.999505 20.979478 1.000398 19.330386 Z M 1.000398 19.330386 " stroke="#ff914d" stroke-width="8.749991" stroke-opacity="1" stroke-miterlimit="4"/><path stroke-linecap="butt" transform="matrix(1.29318, 0.000591957, -0.000591957, 1.29318, 162.626771, 196.154284)" fill="none" stroke-linejoin="miter" d="M 12.53064 31.495169 C 10.579298 31.496063 8.872482 31.176655 7.413213 30.536944 C 5.959982 29.891189 4.760378 29.006686 3.817419 27.883434 C 2.87144 26.760184 2.167036 25.467666 1.701185 24.002862 C 1.235333 22.538058 1.00203 20.979507 1.001275 19.33023 C 1.000522 17.686994 1.244485 16.134266 1.73316 14.669025 C 2.221835 13.203784 2.958283 11.910607 3.945522 10.786471 C 4.938805 9.665354 6.173847 8.779737 7.647631 8.135663 C 9.124435 7.488567 10.864185 7.167581 12.863858 7.166666 C 14.552404 7.165893 16.026643 7.515614 17.292618 8.215826 C 18.561613 8.916037 19.546759 9.815741 20.245034 10.91796 C 20.946329 12.017158 21.294227 13.158806 21.294765 14.33384 C 21.295275 15.448461 20.999745 16.52697 20.408175 17.572388 C 19.822645 18.614781 18.856425 19.464028 17.512534 20.120125 C 16.171661 20.770179 14.356397 21.097241 12.066741 21.098289 L 8.170096 21.097052 C 8.436456 22.281027 8.968514 23.205103 9.763252 23.872304 C 10.567048 24.53346 11.591202 24.865263 12.832691 24.864695 C 13.657329 24.864317 14.361066 24.697859 14.946922 24.368339 C 15.538817 24.032776 16.027987 23.648929 16.411414 23.21982 C 16.803901 22.787687 17.078613 22.422062 17.235553 22.128987 C 17.788731 22.998682 18.441576 23.838125 19.197113 24.653356 C 19.955668 25.462544 20.677932 26.178109 21.366926 26.800048 C 20.385927 28.359155 19.099663 29.528737 17.51116 30.317855 C 15.928697 31.103949 14.267517 31.497395 12.53064 31.495169 Z M 8.097433 20.731586 C 9.166655 20.534754 10.19956 20.186906 11.196147 19.688042 C 12.201795 19.186153 13.029166 18.554457 13.678262 17.802017 C 14.336419 17.046552 14.662258 16.191558 14.661821 15.237031 C 14.664639 14.792994 14.507365 14.358092 14.199065 13.935341 C 13.890765 13.512591 13.377157 13.30138 12.661262 13.301708 C 12.020883 13.302001 11.338319 13.528862 10.610551 13.985314 C 9.888823 14.441763 9.272919 15.118672 8.762841 16.019061 C 8.252762 16.919449 7.999534 18.025124 8.000131 19.330047 C 8.000358 19.825434 8.030777 20.290601 8.097433 20.731586 Z M 8.097433 20.731586 " stroke="#ff914d" stroke-width="8.749991" stroke-opacity="1" stroke-miterlimit="4"/><path stroke-linecap="butt" transform="matrix(1.291855, 0.0585269, -0.0585269, 1.291855, 192.273316, 196.359158)" fill="none" stroke-linejoin="miter" d="M -1.335419 10.900822 C -0.508882 10.857329 0.373359 10.708504 1.317338 10.454075 C 2.261317 10.199646 3.196117 9.876086 4.118856 9.48655 C 5.038441 9.094133 5.906318 8.694988 6.713433 8.289524 C 7.52631 7.877752 8.210799 7.502034 8.764019 7.165524 L 8.763132 26.835075 C 8.764106 27.657492 8.864797 28.478414 9.06493 29.291808 C 9.264789 30.099167 9.556719 30.669525 9.934548 31.00014 L 0.763562 31.001373 C 1.144645 30.669638 1.43359 30.106224 1.636296 29.307841 C 1.835711 28.50356 1.938017 27.691583 1.936906 26.866149 L 1.935952 15.832519 C 1.936949 15.58755 1.910807 15.210765 1.863563 14.701891 C 1.819199 14.189863 1.69844 13.66013 1.497994 13.106793 C 1.297274 12.547421 0.973234 12.06923 0.529029 11.6751 C 0.0904494 11.271644 -0.532368 11.073079 -1.333662 11.073097 Z M 5.46842 5.570124 C 4.642985 5.571235 3.899055 5.369086 3.230867 4.969985 C 2.562543 4.567866 2.030028 4.02655 1.627425 3.349327 C 1.230857 2.67183 1.034142 1.933875 1.034262 1.135599 C 1.033287 0.313182 1.232146 -0.436646 1.627956 -1.110733 C 2.029664 -1.78811 2.564672 -2.326386 3.229825 -2.728442 C 3.897996 -3.130635 4.644866 -3.330778 5.467283 -3.331752 C 6.286819 -3.329572 7.036647 -3.130714 7.714025 -2.729005 C 8.391402 -2.327297 8.932969 -1.786391 9.332555 -1.109031 C 9.734884 -0.437843 9.935164 0.312046 9.936275 1.13748 C 9.936018 1.932739 9.733596 2.670634 9.332024 3.351028 C 8.933333 4.028269 8.39229 4.566819 7.715067 4.969422 C 7.034689 5.369144 6.287955 5.572304 5.46842 5.570124 Z M 5.46842 5.570124 " stroke="#ff914d" stroke-width="8.749991" stroke-opacity="1" stroke-miterlimit="4"/><path stroke-linecap="butt" transform="matrix(1.288865, 0.105551, -0.105551, 1.288865, 206.910812, 196.976617)" fill="none" stroke-linejoin="miter" d="M 0.000553949 14.002054 L 0.000319804 7.670801 C 0.624067 7.404535 1.329749 7.028513 2.11712 6.539725 C 2.907007 6.044668 3.712298 5.478643 4.532746 4.838638 C 5.355711 4.192365 6.125031 3.520178 6.834438 2.819559 C 7.547103 2.121704 8.133569 1.437214 8.600352 0.771618 L 8.76391 0.770347 L 8.765336 7.671286 L 13.799433 7.671205 L 13.799667 14.002457 L 8.76256 14.002784 L 8.763791 21.567477 C 8.763139 23.076852 8.985453 24.089107 9.430731 24.60424 C 9.875517 25.113353 10.511812 25.370382 11.336112 25.369553 C 11.845341 25.370281 12.29777 25.269583 12.693402 25.06746 C 13.095301 24.867854 13.454417 24.589922 13.767984 24.23692 C 13.87718 25.237222 14.053154 26.201749 14.296153 27.133509 C 14.542408 28.068034 14.753925 28.911449 14.930951 29.666766 C 14.377316 30.197029 13.601053 30.636416 12.595897 30.982409 C 11.599526 31.324652 10.565017 31.497265 9.495134 31.496991 C 7.012953 31.497206 5.134369 30.763038 3.865895 29.300013 C 2.600184 27.83373 1.969499 25.757782 1.970335 23.066393 L 1.970495 14.001357 Z M 0.000553949 14.002054 " stroke="#ff914d" stroke-width="8.749991" stroke-opacity="1" stroke-miterlimit="4"/><path stroke-linecap="butt" transform="matrix(1.281399, 0.174163, -0.174163, 1.281399, 228.834217, 198.687659)" fill="none" stroke-linejoin="miter" d="M 0.333328 10.96549 C 1.374742 9.723463 2.6273 8.778919 4.094404 8.134446 C 5.5645 7.489566 7.24301 7.166928 9.129933 7.166532 C 10.730212 7.165467 12.255981 7.378773 13.712414 7.799651 C 15.169253 8.223522 16.46574 8.85819 17.601875 9.703655 C 18.734611 10.546534 19.631905 11.586027 20.293757 12.822137 C 20.961189 14.054439 21.293592 15.490796 21.294367 17.133793 L 21.296186 23.83094 C 21.295776 24.455923 21.350055 25.07957 21.459025 25.701881 C 21.570581 26.320791 21.811423 26.836774 22.175159 27.247649 C 22.542294 27.66111 23.128278 27.868017 23.933111 27.868371 L 23.930727 28.030262 C 23.287231 28.364646 22.608892 28.73425 21.898297 29.135674 C 21.186888 29.531112 20.503783 29.910509 19.848169 30.267879 C 19.188748 30.61967 18.613019 30.914359 18.114182 31.146774 C 17.615344 31.379189 17.265525 31.496849 17.064317 31.496761 C 16.509396 31.495973 16.038923 31.26422 15.649093 30.795924 C 15.256675 30.331027 14.960766 29.746318 14.762177 29.047784 C 14.566175 28.34585 14.467435 27.664229 14.468136 26.996528 L 14.466559 23.463615 C 14.045483 24.13358 13.568873 24.865965 13.043936 25.668935 C 12.52458 26.468098 12.023734 27.246454 11.547792 28.006184 C 11.068044 28.760334 10.666031 29.391127 10.33318 29.902776 C 10.177157 30.167856 9.765207 30.501253 9.09733 30.902968 C 8.431632 31.29829 7.641676 31.497111 6.73005 31.49603 C 5.352337 31.49733 4.22942 31.220124 3.361706 30.667406 C 2.496985 30.114282 1.872326 29.376108 1.481742 28.453698 C 1.097145 27.530474 0.90251 26.502172 0.903825 25.367979 C 0.902437 24.191475 1.174731 23.09971 1.717308 22.090098 C 2.259071 21.074499 2.99777 20.184556 3.930411 19.420673 C 4.862238 18.650805 5.917655 18.050092 7.094075 17.621936 C 8.279067 17.189567 9.511309 16.970262 10.798007 16.972188 C 12.111643 16.970452 13.277568 17.205231 14.297962 17.670131 C 14.00999 16.358818 13.415932 15.329933 12.516195 14.586468 C 11.613465 13.843411 10.508275 13.472343 9.194232 13.471085 C 7.996369 13.472328 6.926018 13.694016 5.980593 14.139552 C 5.037347 14.578693 4.254246 15.276524 3.627891 16.230458 C 3.096282 15.190036 2.575774 14.27614 2.066365 13.488769 C 1.556142 12.695411 0.978734 11.856314 0.333328 10.96549 Z M 7.998667 22.797154 C 7.998431 23.333709 8.176563 23.836876 8.526669 24.304475 C 8.885755 24.770854 9.508732 25.003217 10.399 25.004153 C 11.176081 25.002181 11.923203 24.757359 12.646352 24.268873 C 13.372088 23.776987 13.979407 23.109144 14.468717 22.268339 L 14.467572 19.299326 C 14.468329 19.125463 14.461879 18.943434 14.451215 18.752832 C 14.440551 18.562231 14.423349 18.390809 14.395802 18.232986 C 14.198314 18.125697 13.985715 18.041801 13.752832 17.988098 C 13.519136 17.928408 13.265155 17.898911 12.993885 17.8992 C 12.060899 17.897974 11.219624 18.167786 10.46326 18.703465 C 9.709481 19.235744 9.11088 19.878014 8.66487 20.633676 C 8.221446 21.385937 7.999514 22.108094 7.998667 22.797154 Z M 7.998667 22.797154 " stroke="#ff914d" stroke-width="8.749991" stroke-opacity="1" stroke-miterlimit="4"/><path stroke-linecap="butt" transform="matrix(1.268886, 0.249485, -0.249485, 1.268886, 259.721296, 202.985466)" fill="none" stroke-linejoin="miter" d="M 0.668363 14.604448 C 0.667762 13.333151 0.94385 12.232181 1.496045 11.298575 C 2.054751 10.366768 2.808423 9.596728 3.751134 8.989622 C 4.695643 8.376006 5.739157 7.921475 6.884059 7.622484 C 8.027795 7.317565 9.201835 7.166769 10.399084 7.165334 C 11.43993 7.166944 12.523717 7.261701 13.647483 7.450188 C 14.768868 7.642222 15.836119 7.90339 16.844474 8.240787 C 17.857592 8.57109 18.708759 8.970178 19.397978 9.438049 C 19.198324 9.988333 18.970429 10.661153 18.716674 11.452961 C 18.459372 12.242388 18.221551 13.052613 18.000831 13.887181 C 17.775981 14.716405 17.586266 15.489465 17.429937 16.197469 C 17.14126 15.887888 16.686755 15.564734 16.062291 15.222663 C 15.446137 14.87588 14.732756 14.551291 13.932207 14.253077 C 13.133455 13.948352 12.312008 13.700424 11.463735 13.503948 C 10.617844 13.303925 9.828498 13.203609 9.095698 13.203002 C 7.963022 13.204054 7.395531 13.558833 7.396772 14.26972 C 7.396734 14.645303 7.683613 14.961395 8.25799 15.220959 C 8.840677 15.475811 9.586861 15.73238 10.49596 15.987702 C 11.408023 16.242442 12.373235 16.548301 13.394561 16.904696 C 14.418852 17.260509 15.388325 17.713298 16.298802 18.273119 C 17.211078 18.82643 17.953427 19.533212 18.528231 20.389919 C 19.107797 21.239533 19.399946 22.302661 19.399965 23.570994 C 19.397703 24.812069 19.115637 25.929606 18.544292 26.92239 C 17.981256 27.910462 17.221455 28.743276 16.26489 29.420833 C 15.310706 30.094843 14.236186 30.610882 13.044295 30.968369 C 11.857165 31.318761 10.642164 31.496082 9.398707 31.497367 C 7.640465 31.495199 6.084902 31.286942 4.728472 30.870215 C 3.376805 30.446396 2.022826 29.822929 0.666534 28.999815 C 1.021081 28.000401 1.329622 26.939228 1.595121 25.815713 C 1.86713 24.693996 2.112946 23.611293 2.336116 22.569984 C 2.645741 22.813876 3.187315 23.14146 3.964385 23.555116 C 4.743254 23.962262 5.665023 24.328997 6.72911 24.652357 C 7.798541 24.971588 8.910552 25.131602 10.065141 25.132397 C 10.397481 25.131702 10.763057 25.112157 11.163667 25.067254 C 11.56486 25.025314 11.911154 24.923363 12.197206 24.765531 C 12.486804 24.610079 12.629773 24.366475 12.629078 24.034135 C 12.629266 23.612345 12.337725 23.272542 11.758002 23.017107 C 11.18479 22.763471 10.440937 22.518757 9.52999 22.285348 C 8.622006 22.051356 7.662621 21.775136 6.648288 21.454307 C 5.6393 21.129349 4.679834 20.696142 3.766342 20.152306 C 2.855232 19.604923 2.109969 18.883321 1.530553 17.987501 C 0.953519 17.088133 0.666916 15.959267 0.668363 14.604448 Z M 0.668363 14.604448 " stroke="#ff914d" stroke-width="8.749991" stroke-opacity="1" stroke-miterlimit="4"/><g fill="#ffffff" fill-opacity="1"><g transform="translate(75.695154, 247.223718)"><g><path d="M -4.34375 -36.03125 C -4.539062 -37.09375 -4.863281 -38.109375 -5.3125 -39.078125 C -5.757812 -40.054688 -6.265625 -40.707031 -6.828125 -41.03125 L 10.875 -44.359375 C 12.539062 -44.671875 14.269531 -44.707031 16.0625 -44.46875 C 17.851562 -44.238281 19.539062 -43.703125 21.125 -42.859375 C 22.71875 -42.023438 24.082031 -40.867188 25.21875 -39.390625 C 26.351562 -37.921875 27.125 -36.117188 27.53125 -33.984375 C 28.082031 -31.046875 27.742188 -28.453125 26.515625 -26.203125 C 25.285156 -23.953125 23.484375 -22.207031 21.109375 -20.96875 L 24.71875 -15.03125 C 26.5 -12.125 28.046875 -9.972656 29.359375 -8.578125 C 30.671875 -7.179688 31.757812 -6.363281 32.625 -6.125 L 18.640625 -3.5 C 18.878906 -3.914062 18.957031 -4.46875 18.875 -5.15625 C 18.800781 -5.84375 18.472656 -6.632812 17.890625 -7.53125 L 7.59375 -25.046875 L 10.890625 -7.46875 C 11.085938 -6.425781 11.40625 -5.421875 11.84375 -4.453125 C 12.28125 -3.484375 12.78125 -2.832031 13.34375 -2.5 L 0.84375 -0.15625 C 1.238281 -0.664062 1.46875 -1.460938 1.53125 -2.546875 C 1.59375 -3.628906 1.523438 -4.691406 1.328125 -5.734375 Z M 7.59375 -25.046875 L 13.640625 -26.1875 C 14.859375 -26.414062 15.8125 -26.859375 16.5 -27.515625 C 17.195312 -28.171875 17.671875 -28.925781 17.921875 -29.78125 C 18.171875 -30.632812 18.222656 -31.445312 18.078125 -32.21875 C 17.828125 -33.539062 17.164062 -34.617188 16.09375 -35.453125 C 15.019531 -36.285156 13.609375 -36.535156 11.859375 -36.203125 L 5.71875 -35.046875 Z M 7.59375 -25.046875 "/></g></g></g><g fill="#ffffff" fill-opacity="1"><g transform="translate(108.376432, 241.157964)"><g><path d="M 16.171875 -1.28125 C 13.660156 -0.976562 11.421875 -1.128906 9.453125 -1.734375 C 7.484375 -2.335938 5.804688 -3.285156 4.421875 -4.578125 C 3.046875 -5.878906 1.941406 -7.4375 1.109375 -9.25 C 0.285156 -11.0625 -0.253906 -13.023438 -0.515625 -15.140625 C -0.765625 -17.253906 -0.6875 -19.285156 -0.28125 -21.234375 C 0.125 -23.191406 0.875 -24.96875 1.96875 -26.5625 C 3.070312 -28.15625 4.519531 -29.476562 6.3125 -30.53125 C 8.113281 -31.59375 10.296875 -32.273438 12.859375 -32.578125 C 15.035156 -32.835938 16.988281 -32.613281 18.71875 -31.90625 C 20.457031 -31.195312 21.859375 -30.191406 22.921875 -28.890625 C 23.992188 -27.585938 24.617188 -26.179688 24.796875 -24.671875 C 24.972656 -23.242188 24.765625 -21.8125 24.171875 -20.375 C 23.578125 -18.945312 22.460938 -17.707031 20.828125 -16.65625 C 19.203125 -15.601562 16.921875 -14.898438 13.984375 -14.546875 L 8.96875 -13.953125 C 9.488281 -12.484375 10.316406 -11.382812 11.453125 -10.65625 C 12.585938 -9.925781 13.945312 -9.65625 15.53125 -9.84375 C 16.59375 -9.96875 17.476562 -10.285156 18.1875 -10.796875 C 18.894531 -11.316406 19.460938 -11.882812 19.890625 -12.5 C 20.316406 -13.125 20.609375 -13.632812 20.765625 -14.03125 C 21.609375 -13 22.578125 -12.019531 23.671875 -11.09375 C 24.773438 -10.175781 25.820312 -9.375 26.8125 -8.6875 C 25.78125 -6.53125 24.304688 -4.820312 22.390625 -3.5625 C 20.472656 -2.3125 18.398438 -1.550781 16.171875 -1.28125 Z M 8.8125 -14.421875 C 10.15625 -14.847656 11.429688 -15.457031 12.640625 -16.25 C 13.859375 -17.050781 14.828125 -17.984375 15.546875 -19.046875 C 16.265625 -20.117188 16.550781 -21.269531 16.40625 -22.5 C 16.34375 -23.0625 16.078125 -23.59375 15.609375 -24.09375 C 15.148438 -24.59375 14.460938 -24.785156 13.546875 -24.671875 C 12.710938 -24.578125 11.867188 -24.179688 11.015625 -23.484375 C 10.160156 -22.785156 9.472656 -21.816406 8.953125 -20.578125 C 8.429688 -19.335938 8.269531 -17.878906 8.46875 -16.203125 C 8.550781 -15.578125 8.664062 -14.984375 8.8125 -14.421875 Z M 8.8125 -14.421875 "/></g></g></g><g fill="#ffffff" fill-opacity="1"><g transform="translate(135.827841, 237.867577)"><g><path d="M 0.40625 -15.140625 C 0.28125 -17.265625 0.472656 -19.289062 0.984375 -21.21875 C 1.503906 -23.144531 2.359375 -24.875 3.546875 -26.40625 C 4.742188 -27.9375 6.269531 -29.171875 8.125 -30.109375 C 9.988281 -31.054688 12.207031 -31.609375 14.78125 -31.765625 C 16.644531 -31.878906 18.28125 -31.722656 19.6875 -31.296875 C 21.09375 -30.867188 22.269531 -30.351562 23.21875 -29.75 C 24.164062 -29.144531 24.878906 -28.601562 25.359375 -28.125 C 25.847656 -27.65625 26.09375 -27.421875 26.09375 -27.421875 C 25.269531 -26.441406 24.445312 -25.359375 23.625 -24.171875 C 22.8125 -22.992188 22.109375 -21.882812 21.515625 -20.84375 C 21.003906 -21.8125 20.238281 -22.570312 19.21875 -23.125 C 18.207031 -23.6875 17.113281 -23.9375 15.9375 -23.875 C 14.613281 -23.789062 13.453125 -23.375 12.453125 -22.625 C 11.453125 -21.882812 10.675781 -20.90625 10.125 -19.6875 C 9.582031 -18.46875 9.351562 -17.128906 9.4375 -15.671875 C 9.5625 -13.492188 10.207031 -11.789062 11.375 -10.5625 C 12.539062 -9.34375 14.113281 -8.789062 16.09375 -8.90625 C 17.15625 -8.96875 18.054688 -9.234375 18.796875 -9.703125 C 19.535156 -10.179688 20.140625 -10.710938 20.609375 -11.296875 C 21.078125 -11.890625 21.394531 -12.378906 21.5625 -12.765625 C 22.34375 -11.679688 23.253906 -10.644531 24.296875 -9.65625 C 25.335938 -8.675781 26.328125 -7.8125 27.265625 -7.0625 C 26.117188 -4.976562 24.550781 -3.363281 22.5625 -2.21875 C 20.570312 -1.082031 18.453125 -0.445312 16.203125 -0.3125 C 13.691406 -0.164062 11.46875 -0.453125 9.53125 -1.171875 C 7.601562 -1.898438 5.988281 -2.945312 4.6875 -4.3125 C 3.394531 -5.6875 2.390625 -7.300781 1.671875 -9.15625 C 0.953125 -11.019531 0.53125 -13.015625 0.40625 -15.140625 Z M 0.40625 -15.140625 "/></g></g></g><g fill="#ffffff" fill-opacity="1"><g transform="translate(162.60842, 236.242864)"><g><path d="M 16.203125 0.640625 C 13.679688 0.640625 11.476562 0.222656 9.59375 -0.609375 C 7.707031 -1.441406 6.15625 -2.582031 4.9375 -4.03125 C 3.71875 -5.476562 2.804688 -7.148438 2.203125 -9.046875 C 1.597656 -10.941406 1.296875 -12.957031 1.296875 -15.09375 C 1.304688 -17.21875 1.625 -19.226562 2.25 -21.125 C 2.882812 -23.019531 3.84375 -24.691406 5.125 -26.140625 C 6.40625 -27.597656 8 -28.742188 9.90625 -29.578125 C 11.820312 -30.410156 14.070312 -30.828125 16.65625 -30.828125 C 18.84375 -30.816406 20.753906 -30.359375 22.390625 -29.453125 C 24.023438 -28.546875 25.296875 -27.378906 26.203125 -25.953125 C 27.109375 -24.535156 27.5625 -23.066406 27.5625 -21.546875 C 27.5625 -20.109375 27.175781 -18.710938 26.40625 -17.359375 C 25.644531 -16.003906 24.394531 -14.898438 22.65625 -14.046875 C 20.914062 -13.203125 18.566406 -12.785156 15.609375 -12.796875 L 10.5625 -12.796875 C 10.90625 -11.273438 11.59375 -10.082031 12.625 -9.21875 C 13.664062 -8.363281 14.988281 -7.9375 16.59375 -7.9375 C 17.65625 -7.925781 18.566406 -8.132812 19.328125 -8.5625 C 20.097656 -8.988281 20.734375 -9.484375 21.234375 -10.046875 C 21.734375 -10.609375 22.082031 -11.078125 22.28125 -11.453125 C 23 -10.328125 23.847656 -9.238281 24.828125 -8.1875 C 25.804688 -7.144531 26.742188 -6.222656 27.640625 -5.421875 C 26.367188 -3.410156 24.707031 -1.894531 22.65625 -0.875 C 20.601562 0.144531 18.453125 0.648438 16.203125 0.640625 Z M 10.46875 -13.28125 C 11.851562 -13.539062 13.191406 -13.992188 14.484375 -14.640625 C 15.773438 -15.285156 16.847656 -16.09375 17.703125 -17.0625 C 18.554688 -18.03125 18.984375 -19.132812 18.984375 -20.375 C 18.984375 -20.945312 18.78125 -21.503906 18.375 -22.046875 C 17.976562 -22.597656 17.316406 -22.878906 16.390625 -22.890625 C 15.554688 -22.890625 14.671875 -22.59375 13.734375 -22 C 12.804688 -21.414062 12.007812 -20.539062 11.34375 -19.375 C 10.675781 -18.207031 10.34375 -16.78125 10.34375 -15.09375 C 10.34375 -14.457031 10.382812 -13.851562 10.46875 -13.28125 Z M 10.46875 -13.28125 "/></g></g></g><g fill="#ffffff" fill-opacity="1"><g transform="translate(190.458981, 236.406662)"><g><path d="M -0.546875 -26.046875 C 0.523438 -26.046875 1.675781 -26.1875 2.90625 -26.46875 C 4.132812 -26.75 5.359375 -27.109375 6.578125 -27.546875 C 7.796875 -27.992188 8.9375 -28.457031 10 -28.9375 C 11.070312 -29.425781 11.976562 -29.875 12.71875 -30.28125 L 11.578125 -4.875 C 11.523438 -3.8125 11.601562 -2.75 11.8125 -1.6875 C 12.019531 -0.625 12.359375 0.128906 12.828125 0.578125 L 0.984375 0.046875 C 1.492188 -0.359375 1.898438 -1.070312 2.203125 -2.09375 C 2.515625 -3.125 2.691406 -4.171875 2.734375 -5.234375 L 3.390625 -19.484375 C 3.398438 -19.804688 3.390625 -20.296875 3.359375 -20.953125 C 3.335938 -21.617188 3.210938 -22.316406 2.984375 -23.046875 C 2.753906 -23.773438 2.363281 -24.40625 1.8125 -24.9375 C 1.269531 -25.476562 0.484375 -25.773438 -0.546875 -25.828125 Z M 8.546875 -32.546875 C 7.484375 -32.585938 6.535156 -32.882812 5.703125 -33.4375 C 4.867188 -34 4.210938 -34.726562 3.734375 -35.625 C 3.253906 -36.53125 3.039062 -37.492188 3.09375 -38.515625 C 3.132812 -39.578125 3.429688 -40.535156 3.984375 -41.390625 C 4.546875 -42.242188 5.269531 -42.910156 6.15625 -43.390625 C 7.039062 -43.867188 8.015625 -44.085938 9.078125 -44.046875 C 10.140625 -43.992188 11.09375 -43.6875 11.9375 -43.125 C 12.789062 -42.5625 13.453125 -41.832031 13.921875 -40.9375 C 14.398438 -40.039062 14.617188 -39.0625 14.578125 -38 C 14.523438 -36.976562 14.222656 -36.035156 13.671875 -35.171875 C 13.117188 -34.316406 12.390625 -33.648438 11.484375 -33.171875 C 10.585938 -32.703125 9.609375 -32.492188 8.546875 -32.546875 Z M 8.546875 -32.546875 "/></g></g></g><g fill="#ffffff" fill-opacity="1"><g transform="translate(203.638728, 236.931443)"><g><path d="M 1.796875 -21.90625 L 2.46875 -30.078125 C 3.289062 -30.347656 4.234375 -30.757812 5.296875 -31.3125 C 6.367188 -31.863281 7.46875 -32.507812 8.59375 -33.25 C 9.71875 -33.988281 10.78125 -34.773438 11.78125 -35.609375 C 12.78125 -36.441406 13.613281 -37.257812 14.28125 -38.0625 L 14.5 -38.046875 L 13.78125 -29.15625 L 20.25 -28.625 L 19.578125 -20.453125 L 13.109375 -20.984375 L 12.3125 -11.234375 C 12.144531 -9.285156 12.316406 -7.957031 12.828125 -7.25 C 13.347656 -6.539062 14.140625 -6.140625 15.203125 -6.046875 C 15.867188 -5.992188 16.46875 -6.078125 17 -6.296875 C 17.53125 -6.515625 18.015625 -6.835938 18.453125 -7.265625 C 18.492188 -5.972656 18.625 -4.707031 18.84375 -3.46875 C 19.0625 -2.238281 19.242188 -1.128906 19.390625 -0.140625 C 18.617188 0.484375 17.570312 0.960938 16.25 1.296875 C 14.925781 1.640625 13.570312 1.753906 12.1875 1.640625 C 8.976562 1.378906 6.632812 0.238281 5.15625 -1.78125 C 3.675781 -3.8125 3.082031 -6.5625 3.375 -10.03125 L 4.328125 -21.703125 Z M 1.796875 -21.90625 "/></g></g></g><g fill="#ffffff" fill-opacity="1"><g transform="translate(223.435171, 238.411013)"><g><path d="M 3.921875 -25.609375 C 5.472656 -27.023438 7.242188 -28.019531 9.234375 -28.59375 C 11.222656 -29.164062 13.429688 -29.285156 15.859375 -28.953125 C 17.910156 -28.671875 19.832031 -28.132812 21.625 -27.34375 C 23.414062 -26.550781 24.957031 -25.515625 26.25 -24.234375 C 27.550781 -22.953125 28.523438 -21.460938 29.171875 -19.765625 C 29.816406 -18.078125 30 -16.179688 29.71875 -14.078125 L 28.546875 -5.484375 C 28.429688 -4.679688 28.394531 -3.867188 28.4375 -3.046875 C 28.476562 -2.234375 28.695312 -1.53125 29.09375 -0.9375 C 29.488281 -0.351562 30.195312 0.0078125 31.21875 0.15625 L 31.1875 0.359375 C 30.300781 0.679688 29.363281 1.035156 28.375 1.421875 C 27.394531 1.804688 26.457031 2.164062 25.5625 2.5 C 24.664062 2.84375 23.875 3.125 23.1875 3.34375 C 22.5 3.5625 22.03125 3.648438 21.78125 3.609375 C 21.070312 3.515625 20.507812 3.132812 20.09375 2.46875 C 19.675781 1.8125 19.394531 1.015625 19.25 0.078125 C 19.113281 -0.859375 19.109375 -1.753906 19.234375 -2.609375 L 19.84375 -7.140625 C 19.195312 -6.359375 18.46875 -5.5 17.65625 -4.5625 C 16.84375 -3.625 16.066406 -2.710938 15.328125 -1.828125 C 14.585938 -0.953125 13.953125 -0.210938 13.421875 0.390625 C 13.179688 0.710938 12.597656 1.066406 11.671875 1.453125 C 10.742188 1.847656 9.695312 1.96875 8.53125 1.8125 C 6.757812 1.570312 5.367188 1.019531 4.359375 0.15625 C 3.347656 -0.707031 2.671875 -1.765625 2.328125 -3.015625 C 1.992188 -4.265625 1.925781 -5.613281 2.125 -7.0625 C 2.320312 -8.5625 2.859375 -9.914062 3.734375 -11.125 C 4.617188 -12.332031 5.722656 -13.34375 7.046875 -14.15625 C 8.378906 -14.976562 9.835938 -15.5625 11.421875 -15.90625 C 13.003906 -16.257812 14.625 -16.328125 16.28125 -16.109375 C 17.957031 -15.878906 19.414062 -15.378906 20.65625 -14.609375 C 20.507812 -16.316406 19.921875 -17.726562 18.890625 -18.84375 C 17.867188 -19.96875 16.515625 -20.644531 14.828125 -20.875 C 13.285156 -21.082031 11.875 -20.984375 10.59375 -20.578125 C 9.320312 -20.171875 8.203125 -19.40625 7.234375 -18.28125 C 6.734375 -19.71875 6.222656 -20.984375 5.703125 -22.078125 C 5.179688 -23.179688 4.585938 -24.359375 3.921875 -25.609375 Z M 11.671875 -9.125 C 11.578125 -8.425781 11.71875 -7.75 12.09375 -7.09375 C 12.46875 -6.4375 13.226562 -6.03125 14.375 -5.875 C 15.363281 -5.738281 16.363281 -5.921875 17.375 -6.421875 C 18.394531 -6.921875 19.285156 -7.671875 20.046875 -8.671875 L 20.5625 -12.46875 C 20.59375 -12.695312 20.617188 -12.929688 20.640625 -13.171875 C 20.671875 -13.421875 20.679688 -13.644531 20.671875 -13.84375 C 20.429688 -14.019531 20.164062 -14.164062 19.875 -14.28125 C 19.59375 -14.394531 19.28125 -14.472656 18.9375 -14.515625 C 17.738281 -14.679688 16.609375 -14.488281 15.546875 -13.9375 C 14.492188 -13.382812 13.613281 -12.660156 12.90625 -11.765625 C 12.207031 -10.878906 11.796875 -10 11.671875 -9.125 Z M 11.671875 -9.125 "/></g></g></g><g fill="#ffffff" fill-opacity="1"><g transform="translate(251.987259, 242.320936)"><g><path d="M 4.9375 -20.625 C 5.25 -22.25 5.875 -23.582031 6.8125 -24.625 C 7.75 -25.664062 8.894531 -26.453125 10.25 -26.984375 C 11.601562 -27.523438 13.046875 -27.847656 14.578125 -27.953125 C 16.109375 -28.054688 17.632812 -27.957031 19.15625 -27.65625 C 20.46875 -27.394531 21.8125 -27.003906 23.1875 -26.484375 C 24.570312 -25.960938 25.863281 -25.363281 27.0625 -24.6875 C 28.257812 -24.007812 29.238281 -23.285156 30 -22.515625 C 29.601562 -21.867188 29.140625 -21.070312 28.609375 -20.125 C 28.085938 -19.1875 27.582031 -18.21875 27.09375 -17.21875 C 26.613281 -16.21875 26.1875 -15.289062 25.8125 -14.4375 C 25.53125 -14.90625 25.035156 -15.429688 24.328125 -16.015625 C 23.617188 -16.609375 22.796875 -17.195312 21.859375 -17.78125 C 20.921875 -18.363281 19.9375 -18.882812 18.90625 -19.34375 C 17.882812 -19.800781 16.910156 -20.125 15.984375 -20.3125 C 14.535156 -20.59375 13.722656 -20.285156 13.546875 -19.390625 C 13.453125 -18.910156 13.742188 -18.4375 14.421875 -17.96875 C 15.097656 -17.5 15.984375 -16.988281 17.078125 -16.4375 C 18.171875 -15.882812 19.320312 -15.253906 20.53125 -14.546875 C 21.738281 -13.847656 22.847656 -13.03125 23.859375 -12.09375 C 24.878906 -11.15625 25.648438 -10.070312 26.171875 -8.84375 C 26.691406 -7.613281 26.796875 -6.191406 26.484375 -4.578125 C 26.171875 -3.003906 25.523438 -1.660156 24.546875 -0.546875 C 23.578125 0.566406 22.40625 1.429688 21.03125 2.046875 C 19.65625 2.671875 18.164062 3.054688 16.5625 3.203125 C 14.96875 3.359375 13.378906 3.28125 11.796875 2.96875 C 9.566406 2.53125 7.644531 1.875 6.03125 1 C 4.414062 0.132812 2.851562 -0.988281 1.34375 -2.375 C 2.039062 -3.5625 2.703125 -4.828125 3.328125 -6.171875 C 3.953125 -7.523438 4.53125 -8.84375 5.0625 -10.125 C 5.40625 -9.726562 6.015625 -9.171875 6.890625 -8.453125 C 7.773438 -7.742188 8.851562 -7.050781 10.125 -6.375 C 11.40625 -5.707031 12.773438 -5.226562 14.234375 -4.9375 C 14.671875 -4.851562 15.144531 -4.789062 15.65625 -4.75 C 16.175781 -4.707031 16.632812 -4.742188 17.03125 -4.859375 C 17.4375 -4.984375 17.679688 -5.257812 17.765625 -5.6875 C 17.867188 -6.21875 17.585938 -6.71875 16.921875 -7.1875 C 16.253906 -7.664062 15.367188 -8.164062 14.265625 -8.6875 C 13.171875 -9.207031 12.019531 -9.796875 10.8125 -10.453125 C 9.613281 -11.109375 8.503906 -11.898438 7.484375 -12.828125 C 6.460938 -13.753906 5.695312 -14.859375 5.1875 -16.140625 C 4.675781 -17.421875 4.59375 -18.914062 4.9375 -20.625 Z M 4.9375 -20.625 "/></g></g></g></svg>